# File generated by ImageToStl.com - Free Image and 3D model conversion tools

mtllib shutgun.mtl

o obj1
v -73.16529083 135.62969971 0
v -4.74773359 8.8010807 0
v -73.16529083 135.62969971 5
v -4.74773359 8.8010807 5
v 0 150 0
v 0 150 5
v 73.16529083 135.62969971 0
v 73.16529083 135.62969971 5
v 4.74773359 8.8010807 0
v 4.74773359 8.8010807 5
v 0 10 0
v 0 10 5
vn -0.88011 -0.47477 0
vn -0.19273 0.98125 0
vn 0.19273 0.98125 -0
vn 0.88011 -0.47477 0
vn -0.24484 -0.96956 0
vn 0.24484 -0.96956 0
vn -0 0 1
vn 0 0 -1
usemtl mat1
f 1//1 2//1 3//1
f 3//1 2//1 4//1
f 5//2 1//2 6//2
f 6//2 1//2 3//2
f 7//3 5//3 8//3
f 8//3 5//3 6//3
f 9//4 7//4 10//4
f 10//4 7//4 8//4
f 11//5 9//5 12//5
f 12//5 9//5 10//5
f 2//6 11//6 4//6
f 4//6 11//6 12//6
f 3//7 4//7 6//7
f 6//7 4//7 12//7
f 6//7 12//7 10//7
f 10//7 8//7 6//7
f 9//8 11//8 5//8
f 5//8 11//8 2//8
f 5//8 2//8 1//8
f 5//8 7//8 9//8
# Vertices: 12, normals: 8, texture coordinates: 0, faces: 20

